<svg width="16" height="16" viewBox="0 0 16 16" fill="none" xmlns="http://www.w3.org/2000/svg">
<path d="M15.5232 8.47046H8.54412L13.1921 13.1184C13.3697 13.296 13.6621 13.3104 13.8447 13.1384C14.9829 12.066 15.7659 10.6205 15.9956 8.99546C16.035 8.71722 15.8041 8.47046 15.5232 8.47046ZM15.0576 6.56458C14.8153 3.05106 12.0076 0.243416 8.49412 0.00106353C8.22588 -0.0174658 8 0.20871 8 0.477533V7.0587H14.5815C14.8503 7.0587 15.0762 6.83281 15.0576 6.56458ZM6.58823 8.47046V1.49135C6.58823 1.21047 6.34147 0.979591 6.06353 1.019C2.55853 1.5143 -0.120589 4.57635 0.00411708 8.24605C0.132352 12.0149 3.37735 15.1054 7.14794 15.0581C8.63029 15.0396 10 14.5619 11.1262 13.7631C11.3585 13.5984 11.3738 13.2563 11.1724 13.0549L6.58823 8.47046Z" fill="#DDE2FF"/>
</svg>
