<svg width="18" height="19" viewBox="0 0 18 19" fill="none" xmlns="http://www.w3.org/2000/svg">
<path d="M8.00002 18.5C9.10377 18.5 9.99908 17.6047 9.99908 16.5H6.00096C6.00096 17.6047 6.89627 18.5 8.00002 18.5ZM14.731 13.8216C14.1272 13.1728 12.9975 12.1969 12.9975 9C12.9975 6.57188 11.295 4.62812 8.9994 4.15125V3.5C8.9994 2.94781 8.5519 2.5 8.00002 2.5C7.44815 2.5 7.00065 2.94781 7.00065 3.5V4.15125C4.70502 4.62812 3.00252 6.57188 3.00252 9C3.00252 12.1969 1.87283 13.1728 1.26908 13.8216C1.08158 14.0231 0.998459 14.2641 1.00002 14.5C1.00346 15.0125 1.40565 15.5 2.00315 15.5H13.9969C14.5944 15.5 14.9969 15.0125 15 14.5C15.0016 14.2641 14.9185 14.0228 14.731 13.8216Z" fill="#C5C7CD"/>
<circle cx="13" cy="4.5" r="3.75" fill="#3751FF" stroke="#F7F8FC" stroke-width="1.5"/>
</svg>
